<svg width="137" height="112" viewBox="0 0 137 112" fill="none" xmlns="http://www.w3.org/2000/svg">
<ellipse cx="35.5" cy="82.5092" rx="35" ry="29.4277" fill="#96A653" fill-opacity="0.3"/>
<ellipse cx="111.5" cy="21.9719" rx="25" ry="21.0198" fill="#96A653"/>
<ellipse cx="70.5" cy="53.0815" rx="50" ry="42.0395" fill="white"/>
<g clip-path="url(#clip0)">
<path d="M94.6534 26.4154H86.1052L88.2113 24.6446C88.9391 24.0326 88.9391 23.0431 88.2113 22.4311C87.4834 21.8192 86.3065 21.8192 85.5787 22.4311L80.3135 26.8711C79.9573 27.1706 79.7715 27.5612 79.7715 27.9778C79.7715 28.3945 79.9728 28.7851 80.3135 29.0845L85.5942 33.5245C85.9503 33.824 86.4304 33.9802 86.9105 33.9802C87.3905 33.9802 87.8551 33.824 88.2268 33.5245C88.9546 32.9125 88.9546 31.923 88.2268 31.311L86.1207 29.5403H94.6689C100.228 29.5403 104.735 33.3422 104.735 38.0035V43.2507C104.735 44.1101 105.571 44.8132 106.593 44.8132C107.615 44.8132 108.451 44.1101 108.451 43.2507V38.0035C108.451 31.6105 102.257 26.4154 94.6534 26.4154Z" fill="#A4AE1D"/>
<path d="M106.454 52.0396H75.9315C74.9095 52.0396 74.0732 52.7427 74.0732 53.602V79.2652C74.0732 80.1245 74.9095 80.8276 75.9315 80.8276H106.454C107.476 80.8276 108.312 80.1245 108.312 79.2652V53.602C108.312 52.7296 107.476 52.0396 106.454 52.0396ZM104.596 77.7027H77.7898V55.1644H104.596V77.7027Z" fill="#A4AE1D"/>
<path d="M61.4055 69.2784C60.6776 68.6665 59.5007 68.6665 58.7729 69.2784C58.045 69.8904 58.045 70.8799 58.7729 71.4919L60.879 73.2626H52.3308C46.7713 73.2626 42.2649 69.4607 42.2649 64.7994V59.5522C42.2649 58.6928 41.4287 57.9897 40.4066 57.9897C39.3846 57.9897 38.5483 58.6928 38.5483 59.5522V64.7994C38.5483 71.1924 44.7272 76.3875 52.3308 76.3875H60.879L58.7729 78.1583C58.045 78.7703 58.045 79.7598 58.7729 80.3718C59.1291 80.6712 59.6091 80.8275 60.0892 80.8275C60.5692 80.8275 61.0338 80.6712 61.4055 80.3718L66.6862 75.9318C67.414 75.3199 67.414 74.3303 66.6862 73.7184L61.4055 69.2784Z" fill="#A4AE1D"/>
<path d="M40.5463 25.101C41.0418 25.101 41.5219 24.9317 41.8626 24.6453C42.2033 24.3588 42.4046 23.9552 42.4046 23.5385C42.4046 23.1349 42.2033 22.7182 41.8626 22.4318C41.5219 22.1453 41.0418 21.9761 40.5463 21.9761C40.0507 21.9761 39.5707 22.1453 39.23 22.4318C38.8893 22.7182 38.688 23.1219 38.688 23.5385C38.688 23.9552 38.8893 24.3588 39.23 24.6453C39.5862 24.9317 40.0507 25.101 40.5463 25.101Z" fill="#A4AE1D"/>
<path d="M55.8148 25.101C56.8369 25.101 57.6731 24.3979 57.6731 23.5385C57.6731 22.6792 56.8369 21.9761 55.8148 21.9761C54.7928 21.9761 53.9565 22.6792 53.9565 23.5385C53.9565 24.3979 54.7773 25.101 55.8148 25.101Z" fill="#A4AE1D"/>
<path d="M48.1806 25.101C49.2026 25.101 50.0389 24.3979 50.0389 23.5385C50.0389 22.6792 49.2026 21.9761 48.1806 21.9761C47.1585 21.9761 46.3223 22.6792 46.3223 23.5385C46.3223 24.3979 47.1585 25.101 48.1806 25.101Z" fill="#A4AE1D"/>
<path d="M63.434 25.101C64.4561 25.101 65.2923 24.3979 65.2923 23.5385C65.2923 22.6792 64.4561 21.9761 63.434 21.9761C62.4119 21.9761 61.5757 22.6792 61.5757 23.5385C61.5757 24.3979 62.4119 25.101 63.434 25.101Z" fill="#A4AE1D"/>
<path d="M71.0688 21.9761C70.5887 21.9761 70.0931 22.1453 69.7525 22.4318C69.4118 22.7182 69.2104 23.1219 69.2104 23.5385C69.2104 23.9552 69.4118 24.3588 69.7525 24.6453C70.0931 24.9317 70.5732 25.101 71.0688 25.101C71.5643 25.101 72.0444 24.9317 72.3851 24.6453C72.7257 24.3588 72.9271 23.9552 72.9271 23.5385C72.9271 23.1219 72.7257 22.7182 72.3851 22.4318C72.0444 22.1453 71.5643 21.9761 71.0688 21.9761Z" fill="#A4AE1D"/>
<path d="M71.0688 41.2324C70.0467 41.2324 69.2104 41.9355 69.2104 42.7949C69.2104 43.6542 70.0467 44.3573 71.0688 44.3573C72.0908 44.3573 72.9271 43.6542 72.9271 42.7949C72.9271 41.9225 72.1063 41.2324 71.0688 41.2324Z" fill="#A4AE1D"/>
<path d="M71.0688 34.8135C70.0467 34.8135 69.2104 35.5166 69.2104 36.3759C69.2104 37.2353 70.0467 37.9384 71.0688 37.9384C72.0908 37.9384 72.9271 37.2353 72.9271 36.3759C72.9271 35.5036 72.1063 34.8135 71.0688 34.8135Z" fill="#A4AE1D"/>
<path d="M71.0688 28.3945C70.0467 28.3945 69.2104 29.0976 69.2104 29.957C69.2104 30.8163 70.0467 31.5194 71.0688 31.5194C72.0908 31.5194 72.9271 30.8163 72.9271 29.957C72.9271 29.0976 72.1063 28.3945 71.0688 28.3945Z" fill="#A4AE1D"/>
<path d="M71.0688 47.6387C70.5732 47.6387 70.0931 47.8079 69.7525 48.0944C69.4118 48.3808 69.2104 48.7845 69.2104 49.2011C69.2104 49.6047 69.4118 50.0214 69.7525 50.3078C70.0931 50.5943 70.5732 50.7636 71.0688 50.7636C71.5643 50.7636 72.0444 50.5943 72.3851 50.3078C72.7257 50.0214 72.9271 49.6178 72.9271 49.2011C72.9271 48.7845 72.7257 48.3808 72.3851 48.0944C72.0445 47.8079 71.5643 47.6387 71.0688 47.6387Z" fill="#A4AE1D"/>
<path d="M63.434 50.7636C64.4561 50.7636 65.2923 50.0605 65.2923 49.2011C65.2923 48.3418 64.4561 47.6387 63.434 47.6387C62.4119 47.6387 61.5757 48.3418 61.5757 49.2011C61.5757 50.0735 62.4119 50.7636 63.434 50.7636Z" fill="#A4AE1D"/>
<path d="M55.8148 50.7636C56.8369 50.7636 57.6731 50.0605 57.6731 49.2011C57.6731 48.3418 56.8369 47.6387 55.8148 47.6387C54.7928 47.6387 53.9565 48.3418 53.9565 49.2011C53.9565 50.0735 54.7773 50.7636 55.8148 50.7636Z" fill="#A4AE1D"/>
<path d="M48.1806 50.7636C49.2026 50.7636 50.0389 50.0605 50.0389 49.2011C50.0389 48.3418 49.2026 47.6387 48.1806 47.6387C47.1585 47.6387 46.3223 48.3418 46.3223 49.2011C46.3223 50.0735 47.1585 50.7636 48.1806 50.7636Z" fill="#A4AE1D"/>
<path d="M40.5463 50.7636C41.0418 50.7636 41.5219 50.5943 41.8626 50.3078C42.2033 50.0214 42.4046 49.6178 42.4046 49.2011C42.4046 48.7845 42.2033 48.3808 41.8626 48.0944C41.5219 47.8079 41.0418 47.6387 40.5463 47.6387C40.0507 47.6387 39.5707 47.8079 39.23 48.0944C38.8893 48.3808 38.688 48.7845 38.688 49.2011C38.688 49.6047 38.8893 50.0214 39.23 50.3078C39.5862 50.5943 40.0507 50.7636 40.5463 50.7636Z" fill="#A4AE1D"/>
<path d="M40.5463 44.3573C41.5684 44.3573 42.4046 43.6542 42.4046 42.7949C42.4046 41.9355 41.5684 41.2324 40.5463 41.2324C39.5242 41.2324 38.688 41.9355 38.688 42.7949C38.688 43.6542 39.5242 44.3573 40.5463 44.3573Z" fill="#A4AE1D"/>
<path d="M40.5463 37.9384C41.5684 37.9384 42.4046 37.2353 42.4046 36.3759C42.4046 35.5166 41.5684 34.8135 40.5463 34.8135C39.5242 34.8135 38.688 35.5166 38.688 36.3759C38.688 37.2353 39.5242 37.9384 40.5463 37.9384Z" fill="#A4AE1D"/>
<path d="M40.5463 31.5194C41.5684 31.5194 42.4046 30.8163 42.4046 29.957C42.4046 29.0976 41.5684 28.3945 40.5463 28.3945C39.5242 28.3945 38.688 29.0976 38.688 29.957C38.688 30.8163 39.5242 31.5194 40.5463 31.5194Z" fill="#A4AE1D"/>
</g>
<defs>
<clipPath id="clip0">
<rect width="70" height="58.8554" fill="white" transform="translate(38.5 21.9722)"/>
</clipPath>
</defs>
</svg>
