<svg width="137" height="112" viewBox="0 0 137 112" fill="none" xmlns="http://www.w3.org/2000/svg">
<ellipse cx="35.5" cy="82.1459" rx="35" ry="29.4277" fill="#96A653" fill-opacity="0.3"/>
<ellipse cx="111.5" cy="21.6091" rx="25" ry="21.0198" fill="#96A653"/>
<ellipse cx="70.5" cy="52.7182" rx="50" ry="42.0395" fill="white"/>
<g clip-path="url(#clip0)">
<path d="M102.481 61.6212C103.915 60.0827 104.603 58.4335 104.516 56.735C104.428 54.8643 103.432 53.3996 102.613 52.5012C103.564 50.5073 103.93 47.3689 100.754 44.9319C98.426 43.1473 94.4737 42.3473 88.999 42.5689C85.1492 42.7166 81.9287 43.3196 81.797 43.3443H81.7824C81.0505 43.455 80.2746 43.5904 79.4842 43.7381C79.4256 42.9504 79.5866 40.9935 81.3139 36.5873C83.3633 31.3443 83.2462 27.332 80.9333 24.6489C78.5034 21.8304 74.6243 21.6089 73.4825 21.6089C72.3846 21.6089 71.3746 21.9904 70.6573 22.692C69.0325 24.2797 69.2228 27.2089 69.4277 28.5627C67.4955 32.9196 62.0793 43.6027 57.4975 46.5689C57.4097 46.6181 57.3365 46.6796 57.2633 46.7412C55.9166 47.935 55.009 49.2273 54.3942 50.3596C53.5306 49.9658 52.5498 49.7443 51.4959 49.7443H42.5666C39.1998 49.7443 36.4771 52.0458 36.4771 54.8643V74.8642C36.4771 77.695 39.2144 79.9842 42.5666 79.9842H51.4959C52.7987 79.9842 54.0136 79.6396 55.009 79.0489L58.449 79.3935C58.976 79.455 68.3445 80.4519 77.9618 80.2919C79.7037 80.4027 81.3432 80.4642 82.8656 80.4642C85.4858 80.4642 87.7694 80.2919 89.6724 79.9473C94.1517 79.1473 97.2111 77.5473 98.7627 75.1965C99.9484 73.3996 99.9484 71.615 99.7581 70.4827C102.671 68.2673 103.183 65.8181 103.081 64.095C103.022 63.0981 102.759 62.2489 102.481 61.6212ZM42.5666 76.6612C41.3809 76.6612 40.4294 75.8489 40.4294 74.8642V54.8519C40.4294 53.855 41.3955 53.055 42.5666 53.055H51.4959C52.6816 53.055 53.6331 53.8673 53.6331 54.8519V74.8519C53.6331 75.8489 52.6669 76.6489 51.4959 76.6489H42.5666V76.6612ZM98.7334 60.1812C98.1186 60.7227 98.0015 61.5473 98.4699 62.1873C98.4699 62.1996 99.0701 63.0612 99.1433 64.2427C99.2458 65.855 98.3236 67.2827 96.3913 68.5012C95.7033 68.9442 95.4252 69.7073 95.718 70.3965C95.718 70.4089 96.3474 72.0335 95.3227 73.5719C94.342 75.0489 92.1609 76.1073 88.8526 76.6981C86.2031 77.1781 82.6021 77.2642 78.1814 76.9689C78.1228 76.9689 78.0496 76.9689 77.9764 76.9689C68.564 77.1412 59.0492 76.1073 58.9467 76.095H58.9321L57.4536 75.9473C57.5415 75.6027 57.5854 75.2335 57.5854 74.8642V54.8519C57.5854 54.3227 57.4829 53.8058 57.3072 53.3258C57.5707 52.5012 58.3026 50.6673 60.03 49.1043C66.6025 44.7227 73.0287 29.9412 73.3068 29.3012C73.4239 29.0427 73.4532 28.7597 73.3947 28.4766C73.1458 27.0981 73.2336 25.412 73.585 24.9073C74.3608 24.9197 76.4541 25.1043 77.7129 26.5689C79.206 28.3043 79.1475 31.4058 77.5373 35.5166C75.0781 41.7812 74.8731 45.0796 76.82 46.5319C77.7861 47.2581 79.0743 47.295 80.0111 47.0119C80.9041 46.8396 81.7531 46.6919 82.5582 46.5812C82.6167 46.5689 82.6899 46.5566 82.7485 46.5443C87.2424 45.7196 95.2934 45.215 98.0894 47.3566C100.461 49.1781 98.7773 51.5904 98.5871 51.8489C98.0454 52.5381 98.2065 53.4366 98.9384 53.9904C98.953 54.0027 100.49 55.2212 100.563 56.8581C100.622 57.9535 100.007 59.0735 98.7334 60.1812Z" fill="#A4AE1D"/>
</g>
<defs>
<clipPath id="clip0">
<rect width="70" height="58.8554" fill="white" transform="translate(35.5 21.6089)"/>
</clipPath>
</defs>
</svg>
