<svg width="230" height="111" viewBox="0 0 230 111" fill="none" xmlns="http://www.w3.org/2000/svg">
<mask id="path-1-inside-1" fill="white">
<path d="M230 65.6044V83.1809C230 87.5658 225.772 91.12 220.557 91.12H210.453C208.628 80.5877 197.831 72.4893 184.8 72.4893C171.801 72.4893 161.004 80.5877 159.179 91.12H73.3447C71.5194 80.5877 60.7229 72.4893 47.7234 72.4893C34.7239 72.4893 23.9274 80.5877 22.1021 91.12H9.44868C4.23384 91.12 0.00627642 87.5658 0.00627642 83.1809V65.6044H230ZM65.041 23.1893H59.662L57.6855 31.7698H62.9263C66.4184 31.7698 69.3137 29.7592 69.3137 26.3968C69.3137 24.3499 67.7063 23.1893 65.041 23.1893ZM204.403 94.2694C204.403 103.347 195.622 110.73 184.825 110.73C173.998 110.73 165.216 103.347 165.216 94.2694C165.216 85.1656 173.998 77.782 184.825 77.782C195.621 77.782 204.403 85.1659 204.403 94.2694ZM194.614 94.2694C194.614 89.718 190.208 86.039 184.826 86.039C179.412 86.039 175.036 89.718 175.036 94.2694C175.036 98.7949 179.412 102.5 184.826 102.5C190.208 102.5 194.614 98.7949 194.614 94.2694ZM67.2944 94.2694C67.2944 103.347 58.5443 110.73 47.7166 110.73C36.889 110.73 28.1388 103.347 28.1388 94.2694C28.1388 85.1656 36.8893 77.782 47.7166 77.782C58.5439 77.782 67.2944 85.1659 67.2944 94.2694ZM57.5059 94.2694C57.5059 89.718 53.1306 86.039 47.7174 86.039C42.3034 86.039 37.9285 89.718 37.9285 94.2694C37.9285 98.7949 42.3037 102.5 47.7174 102.5C53.1306 102.5 57.5059 98.7949 57.5059 94.2694ZM229.993 61.216H-0.000488281V8.07483C-0.000488281 3.68171 4.24887 0.135742 9.44191 0.135742H152.153C157.378 0.135742 161.596 3.68202 161.596 8.07483V13.9768H180.324C183.629 13.9768 186.808 15.0884 189.169 17.0465L226.279 47.9042C228.639 49.8892 229.993 52.5884 229.993 55.4202V61.216ZM33.5164 30.9583L35.2624 23.1896H48.1323L49.0974 18.8995H30.3903L24.0462 46.3385H29.9296L32.5054 35.2462H43.3526L44.3177 30.9587H33.5164V30.9583ZM67.9367 34.783V34.7053C72.8546 33.3535 75.3816 29.2963 75.3816 25.5462C75.3816 22.7267 73.728 20.5995 70.9677 19.594C69.6369 19.0929 68.0258 18.8988 66.2801 18.8988H54.744L48.4025 46.3376H54.3287L56.6742 36.0956H62.5576L66.695 46.3376H73.0365L68.6718 36.173C68.2565 35.1707 67.9367 34.783 67.9367 34.783ZM104.143 18.8992H84.6557L78.2683 46.3382H98.5368L99.5019 42.0481H85.1627L86.8625 34.667H97.848L98.8593 30.3769H87.8738L89.5274 23.1896H103.132L104.143 18.8992ZM130.473 18.8992H110.985L104.598 46.3382H124.867L125.832 42.0481H111.492L113.192 34.667H124.178L125.189 30.3769H114.203L115.857 23.1896H129.462L130.473 18.8992ZM211.108 46.7923L182.055 23.4768C181.772 23.2654 181.394 23.133 181.016 23.133H174.186C173.368 23.133 172.707 23.6888 172.707 24.377V47.6925C172.707 48.3807 173.368 48.9362 174.186 48.9362H210.1C211.422 48.9359 212.083 47.5598 211.108 46.7923Z"/>
</mask>
<path d="M230 65.6044V83.1809C230 87.5658 225.772 91.12 220.557 91.12H210.453C208.628 80.5877 197.831 72.4893 184.8 72.4893C171.801 72.4893 161.004 80.5877 159.179 91.12H73.3447C71.5194 80.5877 60.7229 72.4893 47.7234 72.4893C34.7239 72.4893 23.9274 80.5877 22.1021 91.12H9.44868C4.23384 91.12 0.00627642 87.5658 0.00627642 83.1809V65.6044H230ZM65.041 23.1893H59.662L57.6855 31.7698H62.9263C66.4184 31.7698 69.3137 29.7592 69.3137 26.3968C69.3137 24.3499 67.7063 23.1893 65.041 23.1893ZM204.403 94.2694C204.403 103.347 195.622 110.73 184.825 110.73C173.998 110.73 165.216 103.347 165.216 94.2694C165.216 85.1656 173.998 77.782 184.825 77.782C195.621 77.782 204.403 85.1659 204.403 94.2694ZM194.614 94.2694C194.614 89.718 190.208 86.039 184.826 86.039C179.412 86.039 175.036 89.718 175.036 94.2694C175.036 98.7949 179.412 102.5 184.826 102.5C190.208 102.5 194.614 98.7949 194.614 94.2694ZM67.2944 94.2694C67.2944 103.347 58.5443 110.73 47.7166 110.73C36.889 110.73 28.1388 103.347 28.1388 94.2694C28.1388 85.1656 36.8893 77.782 47.7166 77.782C58.5439 77.782 67.2944 85.1659 67.2944 94.2694ZM57.5059 94.2694C57.5059 89.718 53.1306 86.039 47.7174 86.039C42.3034 86.039 37.9285 89.718 37.9285 94.2694C37.9285 98.7949 42.3037 102.5 47.7174 102.5C53.1306 102.5 57.5059 98.7949 57.5059 94.2694ZM229.993 61.216H-0.000488281V8.07483C-0.000488281 3.68171 4.24887 0.135742 9.44191 0.135742H152.153C157.378 0.135742 161.596 3.68202 161.596 8.07483V13.9768H180.324C183.629 13.9768 186.808 15.0884 189.169 17.0465L226.279 47.9042C228.639 49.8892 229.993 52.5884 229.993 55.4202V61.216ZM33.5164 30.9583L35.2624 23.1896H48.1323L49.0974 18.8995H30.3903L24.0462 46.3385H29.9296L32.5054 35.2462H43.3526L44.3177 30.9587H33.5164V30.9583ZM67.9367 34.783V34.7053C72.8546 33.3535 75.3816 29.2963 75.3816 25.5462C75.3816 22.7267 73.728 20.5995 70.9677 19.594C69.6369 19.0929 68.0258 18.8988 66.2801 18.8988H54.744L48.4025 46.3376H54.3287L56.6742 36.0956H62.5576L66.695 46.3376H73.0365L68.6718 36.173C68.2565 35.1707 67.9367 34.783 67.9367 34.783ZM104.143 18.8992H84.6557L78.2683 46.3382H98.5368L99.5019 42.0481H85.1627L86.8625 34.667H97.848L98.8593 30.3769H87.8738L89.5274 23.1896H103.132L104.143 18.8992ZM130.473 18.8992H110.985L104.598 46.3382H124.867L125.832 42.0481H111.492L113.192 34.667H124.178L125.189 30.3769H114.203L115.857 23.1896H129.462L130.473 18.8992ZM211.108 46.7923L182.055 23.4768C181.772 23.2654 181.394 23.133 181.016 23.133H174.186C173.368 23.133 172.707 23.6888 172.707 24.377V47.6925C172.707 48.3807 173.368 48.9362 174.186 48.9362H210.1C211.422 48.9359 212.083 47.5598 211.108 46.7923Z" stroke="black" stroke-width="12" mask="url(#path-1-inside-1)"/>
</svg>
