<svg width="201" height="177" viewBox="0 0 201 177" fill="none" xmlns="http://www.w3.org/2000/svg">
<path d="M0.499512 131.572C0.499512 148.482 33.8042 161.236 77.9812 161.236C82.1927 161.236 86.4041 161.128 90.4866 160.875C93.3658 160.694 95.5575 158.599 95.3856 156.142C95.1707 153.685 92.6783 151.878 89.7561 152.023C85.8884 152.239 81.9348 152.384 77.9812 152.384C38.5313 152.384 11.0281 141.4 11.0281 131.572V113.145C24.221 121.852 48.7161 127.453 77.9812 127.453C80.6456 127.453 83.31 127.417 85.9743 127.308C88.8966 127.2 91.1312 125.14 91.0023 122.683C90.8734 120.226 88.4239 118.348 85.5016 118.456C83.0092 118.564 80.4737 118.6 77.9812 118.6C38.5313 118.6 11.0281 107.616 11.0281 97.7885V79.3973C24.221 88.1051 48.7161 93.7055 77.9812 93.7055C122.158 93.7055 155.463 80.951 155.463 64.0412V30.2217C155.463 13.312 122.158 0.557373 77.9812 0.557373C33.8042 0.557373 0.499512 13.312 0.499512 30.2217V131.572ZM77.9812 84.8171C38.5313 84.8171 11.0281 73.833 11.0281 64.0051V45.5778C24.221 54.2856 48.7161 59.886 77.9812 59.886C107.246 59.886 131.741 54.2856 144.934 45.5778V64.0051C144.977 73.8691 117.474 84.8171 77.9812 84.8171ZM77.9812 9.37357C117.431 9.37357 144.934 20.3577 144.934 30.1856C144.934 40.0135 117.431 50.9976 77.9812 50.9976C38.5313 50.9976 11.0281 40.0496 11.0281 30.2217C11.0281 20.3938 38.5313 9.37357 77.9812 9.37357Z" fill="black"/>
<path d="M99.9404 134.209C99.9404 157.515 122.502 176.484 150.22 176.484C177.938 176.484 200.499 157.515 200.499 134.209C200.499 110.904 177.938 91.9351 150.22 91.9351C122.502 91.9351 99.9404 110.868 99.9404 134.209ZM189.971 134.209C189.971 152.637 172.136 167.632 150.22 167.632C128.303 167.632 110.469 152.637 110.469 134.209C110.469 115.782 128.303 100.787 150.22 100.787C172.136 100.787 189.971 115.746 189.971 134.209Z" fill="black"/>
<path d="M138.875 132.439C136.812 130.705 133.503 130.705 131.441 132.439C129.378 134.174 129.378 136.956 131.441 138.69L140.336 146.205C141.368 147.073 142.7 147.506 144.075 147.506C145.407 147.506 146.739 147.073 147.771 146.205L169 128.429C171.062 126.694 171.062 123.912 169 122.178C166.937 120.443 163.628 120.443 161.565 122.178L144.075 136.811L138.875 132.439Z" fill="black"/>
</svg>
