<svg width="201" height="164" viewBox="0 0 201 164" fill="none" xmlns="http://www.w3.org/2000/svg">
<path d="M190.733 60.7027C185.681 57.0765 179.356 55.1081 172.948 55.1081H166.458H143.087H129.779V28.8963C129.779 17.8797 125.959 9.93676 118.402 5.27458C106.449 -2.11583 89.9785 2.09739 89.2803 2.3046C87.2266 2.85716 85.8301 4.44575 85.8301 6.24155V35.5615C85.8301 45.1276 80.4083 53.2432 69.688 59.7012C61.6786 64.536 53.5048 66.6426 52.6423 66.8844L51.4511 67.1261C49.6849 64.6051 46.4401 62.9129 42.7024 62.9129H10.7879C5.20179 62.9129 0.642578 66.7462 0.642578 71.4429V150.32C0.642578 155.017 5.20179 158.85 10.7879 158.85H42.7845C45.9061 158.85 48.7402 157.641 50.5886 155.777C55.7228 160.37 62.9929 163.236 70.8791 163.236H97.9469H100.74H156.231C175.084 163.236 187.119 154.948 189.254 140.443L200.303 82.8048C201.823 74.5165 198.167 66.021 190.733 60.7027ZM43.0309 150.32C43.0309 150.458 42.9077 150.562 42.7434 150.562H10.7879C10.6236 150.562 10.5003 150.458 10.5003 150.32V71.4429C10.5003 71.3048 10.6236 71.2012 10.7879 71.2012H42.7845C42.9488 71.2012 43.072 71.3048 43.072 71.4429V150.32H43.0309ZM190.487 81.4925L179.479 139.234C179.479 139.269 179.479 139.338 179.438 139.407C177.918 149.733 170.114 154.982 156.19 154.982H100.699H97.9058H70.8381C62.0893 154.982 54.4906 149.491 53.1352 142.239C53.0941 141.997 53.0119 141.755 52.9298 141.514V75.3454L55.0656 74.9309C55.1478 74.9309 55.1889 74.8964 55.271 74.8964C55.6817 74.7928 65.4163 72.479 75.233 66.6081C88.6642 58.5961 95.7289 47.8558 95.7289 35.5615V9.55688C100.001 8.96979 107.312 8.65897 112.61 11.9743C117.457 14.9788 119.921 20.677 119.921 28.8963V59.2177C119.921 61.497 122.139 63.3618 124.85 63.3618H143.087H166.458H172.948C177.014 63.3618 181.081 64.6396 184.326 66.988C189.172 70.476 191.555 76.0361 190.487 81.4925Z" fill="black"/>
</svg>
