<svg width="201" height="180" viewBox="0 0 201 180" fill="none" xmlns="http://www.w3.org/2000/svg">
<path d="M173.429 68.4155V61.542C173.429 45.0905 166.505 29.8034 153.952 18.4602C141.086 6.81642 123.396 0.431152 104.097 0.431152H97.3515C78.0529 0.431152 60.3625 6.81642 47.4967 18.4602C34.9437 29.8034 28.0194 45.0905 28.0194 61.542V68.4155C12.786 69.2794 0.679688 79.9466 0.679688 92.98V103.722C0.679688 117.282 13.8135 128.324 29.9403 128.324H46.4246C49.373 128.324 51.7853 126.296 51.7853 123.817V72.8477C51.7853 70.3687 49.373 68.3404 46.4246 68.3404H38.7409V61.542C38.7409 31.8317 63.9363 9.44565 97.3068 9.44565H104.052C137.468 9.44565 162.618 31.8317 162.618 61.542V68.3404H154.935C151.986 68.3404 149.574 70.3687 149.574 72.8477V123.78C149.574 126.259 151.986 128.287 154.935 128.287H162.44C160.251 151.8 140.997 157.246 132.062 158.485C129.605 152.138 122.502 147.555 114.148 147.555H100.747C90.3826 147.555 81.9394 154.654 81.9394 163.368C81.9394 172.082 90.3826 179.219 100.747 179.219H114.193C122.86 179.219 130.141 174.261 132.33 167.575C136.708 167.049 143.632 165.735 150.512 162.354C160.206 157.584 171.687 147.856 173.206 128.249C188.529 127.461 200.68 116.756 200.68 103.685V92.9425C200.724 79.9466 188.663 69.2419 173.429 68.4155ZM41.1532 119.272H30.0297C19.7996 119.272 11.4905 112.286 11.4905 103.685V92.9425C11.4905 84.3411 19.7996 77.3549 30.0297 77.3549H41.1532V119.272ZM114.193 170.204H100.747C96.2794 170.204 92.6609 167.162 92.6609 163.406C92.6609 159.65 96.2794 156.607 100.747 156.607H114.193C118.66 156.607 122.279 159.65 122.279 163.406C122.279 167.162 118.66 170.204 114.193 170.204ZM190.003 103.685C190.003 112.286 181.694 119.272 171.464 119.272H160.34V77.3549H171.464C181.694 77.3549 190.003 84.3411 190.003 92.9425V103.685Z" fill="black"/>
</svg>
