<svg width="201" height="169" viewBox="0 0 201 169" fill="none" xmlns="http://www.w3.org/2000/svg">
<path d="M198.255 6.12903C195.601 2.79845 191.272 0.841309 186.616 0.841309C184.779 0.841309 182.982 1.15033 181.226 1.76838L53.976 45.7526C48.5038 47.6411 45.1143 52.0704 45.2776 57.0491C45.441 62.0278 49.198 66.2511 54.7928 67.8649L104.084 82.0112L120.95 123.455C122.91 128.296 128.137 131.455 134.263 131.455C140.062 131.455 145.044 128.639 147.249 124.141L199.562 17.1508C201.359 13.4426 200.91 9.42527 198.255 6.12903ZM190.292 13.9576L137.938 120.948C136.999 122.837 135.039 123.043 134.222 123.043C133.528 123.043 131.241 122.871 130.383 120.742L112.741 77.3416C112.251 76.1055 111.108 75.1441 109.638 74.732L58.0189 59.8989C55.5687 59.1779 55.3237 57.3238 55.2828 56.7744C55.2828 56.225 55.3645 54.3709 57.7739 53.5125L185.024 9.52828C185.555 9.3566 186.086 9.25359 186.616 9.25359C187.923 9.25359 189.189 9.8373 189.965 10.833C190.496 11.4854 190.986 12.5498 190.292 13.9576Z" fill="black"/>
<path d="M75.7431 99.9004L5.7475 158.752C3.78729 160.4 3.78729 163.044 5.7475 164.692C6.7276 165.516 7.99356 165.928 9.30036 165.928C10.6072 165.928 11.8731 165.516 12.8532 164.692L82.808 105.84C84.7682 104.192 84.7682 101.549 82.808 99.9004C80.8478 98.2523 77.7033 98.2523 75.7431 99.9004Z" fill="black"/>
<path d="M2.11273 113.085C0.152527 114.733 0.152527 117.377 2.11273 119.025C3.09283 119.85 4.3588 120.262 5.6656 120.262C6.9724 120.262 8.23836 119.85 9.21846 119.025L34.5378 97.7372C36.498 96.0891 36.498 93.4452 34.5378 91.7971C32.5775 90.149 29.4331 90.149 27.4729 91.7971L2.11273 113.085Z" fill="black"/>
<path d="M60.0613 167.714C61.0414 168.538 62.3073 168.95 63.6141 168.95C64.9209 168.95 66.1869 168.538 67.167 167.714L92.4863 146.425C94.4465 144.777 94.4465 142.133 92.4863 140.485C90.5261 138.837 87.3816 138.837 85.4214 140.485L60.1021 161.774C58.1011 163.422 58.1011 166.1 60.0613 167.714Z" fill="black"/>
</svg>
