<svg width="201" height="196" viewBox="0 0 201 196" fill="none" xmlns="http://www.w3.org/2000/svg">
<path d="M103.93 116.322H90.6197C85.7795 116.322 81.8588 113.025 81.8588 108.955C81.8588 104.886 85.7795 101.589 90.6197 101.589H114.047C117.241 101.589 119.855 99.3918 119.855 96.7058C119.855 94.0199 117.241 91.8222 114.047 91.8222H103.059V85.0259C103.059 82.3399 100.445 80.1423 97.2509 80.1423C94.0563 80.1423 91.4426 82.3399 91.4426 85.0259V91.8222H90.6197C79.3903 91.8222 70.2422 99.5139 70.2422 108.955C70.2422 118.397 79.3903 126.089 90.6197 126.089H103.93C108.771 126.089 112.691 129.385 112.691 133.455C112.691 137.524 108.771 140.821 103.93 140.821H80.0679C76.8734 140.821 74.2596 143.019 74.2596 145.704C74.2596 148.39 76.8734 150.588 80.0679 150.588H91.491V157.547C91.491 160.233 94.1047 162.431 97.2993 162.431C100.494 162.431 103.108 160.233 103.108 157.547V150.588H104.076C104.124 150.588 104.172 150.588 104.221 150.588C115.354 150.466 124.308 142.815 124.308 133.455C124.308 124.013 115.16 116.322 103.93 116.322Z" fill="#FFD600"/>
<path d="M188.57 111.978C182.471 100.176 174.049 88.7407 163.401 78.0375C150.525 65.0147 137.699 56.3056 131.164 52.2766L155.85 13.7777C157.06 11.865 156.673 9.50457 154.785 7.9988C148.396 2.74894 141.619 0.185059 134.069 0.185059C127.147 0.185059 120.806 2.38267 115.288 4.33611C110.932 5.84188 106.818 7.30695 103.478 7.30695C102.462 7.30695 101.59 7.18486 100.719 6.89999C89.1992 3.35939 80.3415 1.16178 71.7743 1.16178C60.9321 1.16178 51.6871 4.82446 42.6358 12.6382C40.7481 14.2661 40.4577 16.8299 41.9582 18.7427L68.5797 52.5615C61.9969 56.6719 49.4122 65.2995 36.7791 78.0375C26.1789 88.7407 17.7084 100.176 11.6097 111.978C3.96206 126.833 0.0898438 142.338 0.0898438 158.047C0.0898438 178.924 20.3222 195.935 45.1528 195.935H155.027C179.858 195.935 200.09 178.924 200.09 158.047C200.09 142.338 196.218 126.833 188.57 111.978ZM54.3493 16.7079C59.964 12.6382 65.3367 10.8476 71.7743 10.8476C78.6474 10.8476 86.3919 12.801 96.7017 16.016C98.8314 16.6672 101.106 16.9927 103.43 16.9927C109.093 16.9927 114.514 15.1207 119.693 13.2893C124.678 11.5394 129.422 9.87084 134.02 9.87084C136.247 9.87084 139.393 10.1964 143.362 12.5568L120.129 48.8581H79.6639L54.3493 16.7079ZM155.027 186.168H45.1528C26.7113 186.168 11.7065 173.552 11.7065 158.047C11.7065 131.96 23.0811 107.217 45.4432 84.5083C59.5768 70.1424 73.9524 61.2299 78.3086 58.6253H121.774C126.179 61.1892 140.506 70.1424 154.64 84.5083C177.05 107.217 188.376 131.92 188.376 158.047C188.473 173.552 173.468 186.168 155.027 186.168Z" fill="#004BDD"/>
<path d="M57 161.748L134 82.2928" stroke="#A4AE1D" stroke-width="7"/>
</svg>
