<svg width="82" height="69" viewBox="0 0 82 69" fill="none" xmlns="http://www.w3.org/2000/svg">
<path d="M81.2692 0.403809H0.5V68.3138H81.2692V0.403809Z" fill="#44678D"/>
<path d="M21.4227 21.0703C23.3584 25.0895 25.8116 28.8789 29.0427 32.2808C29.4712 32.7335 30.0114 33.1359 30.5805 33.4636C31.4117 33.9436 32.196 33.7749 32.534 32.9755C32.8914 32.1365 33.2195 30.4363 33.239 29.5553C33.2923 27.2533 33.231 25.7447 33.0839 23.4456C32.9886 21.9731 32.3659 20.6801 29.7897 20.2898C28.9941 20.1688 28.9202 19.6182 29.4314 19.0689C30.4955 17.9254 31.9778 17.7432 33.5853 17.671C36.1906 17.5527 38.8054 17.6493 41.4139 17.671C42.4764 17.6792 43.5453 17.7512 44.5916 17.943C45.9565 18.1932 46.6874 18.9982 46.9123 20.1184C47.0287 20.6963 47.0886 21.2904 47.0723 21.8752C47.0044 24.3878 46.8605 26.8991 46.8265 29.4105C46.812 30.3962 46.8976 31.4065 47.1483 32.3664C47.4993 33.7043 48.5827 34.0402 49.6905 33.0735C51.0974 31.8458 52.3378 30.4643 53.502 29.0612C55.6173 26.509 57.1971 23.7082 58.5572 20.8203C59.2606 19.3302 59.7992 19.0065 61.7057 19.0025C65.2893 18.9956 68.8729 18.9929 72.4565 19.0025C73.092 19.0052 73.7566 19.0555 74.3565 19.216C75.3301 19.4771 75.7166 20.1447 75.4885 20.9918C74.9565 22.977 73.6806 24.6642 72.3141 26.2864C70.1213 28.8888 67.8233 31.4287 65.5789 34.0011C65.2926 34.3288 65.0404 34.6782 64.8058 35.033C63.9664 36.3084 64.0247 37.0236 65.2489 38.0854C67.1975 39.7755 69.2837 41.3567 71.1708 43.093C72.5422 44.3562 73.8116 45.7267 74.8983 47.1693C76.2729 48.9939 75.4238 50.7125 72.8559 51.0184C71.2405 51.2102 63.3491 51.0199 62.9413 51.0184C60.8197 51.0104 58.96 50.3917 57.4624 49.1802C55.7968 47.8315 54.2831 46.3521 52.6838 44.9448C52.2019 44.5206 51.6876 44.1141 51.133 43.7591C49.8247 42.9202 48.5407 43.1064 47.9294 44.3982C47.4071 45.5078 46.9559 48.4214 46.9348 48.6703C46.8249 49.9715 45.84 50.8009 44.1064 50.8811C39.1014 51.1095 34.2515 50.6404 29.7334 48.605C25.904 46.8809 22.846 44.4431 20.1972 41.6001C15.9894 37.0844 12.6658 32.1206 9.63141 27.0111C9.47633 26.7498 6.40298 21.2512 6.32039 20.9915C6.04586 20.1219 6.30196 19.2911 7.17588 19.0052C7.72069 18.8269 17.8536 19.0046 18.0222 19.0122C19.6391 19.0858 20.7416 19.6593 21.4227 21.0703Z" fill="white"/>
</svg>
