<svg width="82" height="69" viewBox="0 0 82 69" fill="none" xmlns="http://www.w3.org/2000/svg">
<path d="M81.4997 0.403809H0.730469V68.3138H81.4997V0.403809Z" fill="#DC472E"/>
<path d="M47.3871 43.8756C47.3853 43.6222 47.2967 43.3585 47.185 43.1215C47.0361 42.8101 46.7171 42.6551 46.3166 42.6223C45.8469 42.5836 45.4712 42.743 45.1309 42.9964C44.9944 43.0962 44.9324 43.2452 44.9324 43.2452L44.9395 51.2875V51.4857C44.9395 51.4857 45.021 51.5781 45.0334 51.59C45.3099 51.8418 45.6325 52.0415 46.0454 52.113C46.726 52.2307 47.2063 51.9923 47.3392 51.4618C47.3729 51.3292 47.3924 51.1921 47.3924 51.0565C47.3959 48.6619 47.4012 46.2687 47.3871 43.8756ZM47.3871 43.8756C47.3853 43.6222 47.2967 43.3585 47.185 43.1215C47.0361 42.8101 46.7171 42.6551 46.3166 42.6223C45.8469 42.5836 45.4712 42.743 45.1309 42.9964C44.9944 43.0962 44.9324 43.2452 44.9324 43.2452L44.9395 51.2875V51.4857C44.9395 51.4857 45.021 51.5781 45.0334 51.59C45.3099 51.8418 45.6325 52.0415 46.0454 52.113C46.726 52.2307 47.2063 51.9923 47.3392 51.4618C47.3729 51.3292 47.3924 51.1921 47.3924 51.0565C47.3959 48.6619 47.4012 46.2687 47.3871 43.8756ZM58.0971 31.7473C46.7774 31.5432 35.4524 31.5432 24.1309 31.7473C20.2035 31.8174 17.063 34.5175 17.063 37.8211V52.6867C17.063 55.9918 20.2035 58.6919 24.1309 58.762C35.4524 58.9661 46.7774 58.9661 58.0971 58.762C62.0263 58.6919 65.1668 55.9918 65.1668 52.6867V37.8211C65.1668 34.5177 62.0263 31.8174 58.0971 31.7473ZM27.4558 54.0414H24.1912V38.5246H20.8114V35.9288H30.8426V38.5187H27.4558V54.0414ZM39.1388 47.6009V54.0427H36.2481V52.5705C36.1436 52.6644 36.0851 52.715 36.0301 52.7672C35.4081 53.3573 34.7027 53.849 33.8024 54.1098C33.3628 54.2365 32.9109 54.2797 32.4483 54.2126C31.8174 54.1247 31.3938 53.8192 31.1386 53.3364C30.9011 52.8909 30.8409 52.414 30.8391 51.9342C30.832 50.1609 30.8355 40.7761 30.8355 40.6852H33.7191C33.7244 40.7671 33.735 47.504 33.7368 50.7898C33.7368 50.9686 33.7386 51.1519 33.7811 51.3262C33.8874 51.7673 34.2898 51.9565 34.7949 51.8016C35.3762 51.6228 35.8192 51.286 36.1914 50.8822C36.2464 50.824 36.2464 50.7197 36.2464 50.6363V40.6703L39.1388 40.6643C39.1388 40.6645 39.1388 45.3687 39.1388 47.6009ZM50.1359 52.7553C49.7495 53.7328 48.8988 54.2305 47.6759 54.2201C46.6817 54.2126 45.8753 53.8803 45.2107 53.2738C45.1362 53.2068 44.9306 53.0235 44.9306 53.0235V54.0398H42.0347V35.9272H44.9306C44.9306 37.8554 44.9306 41.8892 44.9306 41.8892C44.9306 41.8892 45.0937 41.615 45.2426 41.4735C45.691 41.0517 46.2368 40.7254 46.9103 40.5824C48.0215 40.3484 49.3029 40.6375 49.9126 41.7298C50.2724 42.375 50.3734 43.0634 50.3734 43.7638C50.3787 46.2955 50.3787 48.8273 50.3751 51.359C50.3734 51.8329 50.3149 52.3009 50.1359 52.7553ZM60.8317 52.2458C60.3302 53.4811 59.2934 54.1666 57.7727 54.3543C56.8299 54.4705 55.8959 54.4542 55.0115 54.1174C53.801 53.6584 53.1151 52.8284 52.8209 51.7719C52.6845 51.2802 52.6171 50.7646 52.61 50.2594C52.587 48.2761 52.5976 46.2912 52.6029 44.3078C52.6047 43.2707 52.8989 42.314 53.7443 41.5198C54.7084 40.6123 55.9419 40.274 57.3509 40.35C57.7745 40.3724 58.2069 40.4305 58.6093 40.5423C59.9792 40.9208 60.7112 41.7836 60.9983 42.928C61.1082 43.3691 61.149 43.8265 61.1578 44.278C61.1809 45.336 61.149 47.6681 61.149 47.6681H55.6034V51.0105C55.6034 51.611 56.1812 52.0968 56.8954 52.0968C57.6079 52.0968 58.1857 51.611 58.1857 51.0105V49.2923H61.1649C61.1649 49.2922 61.2092 51.3204 60.8317 52.2458ZM58.1857 43.7192C58.1857 43.1202 57.6079 42.6329 56.8954 42.6329C56.1812 42.6329 55.6034 43.1202 55.6034 43.7192V45.5953H58.1857V43.7192ZM47.185 43.1217C47.0361 42.8103 46.7171 42.6553 46.3166 42.6225C45.8469 42.5838 45.4712 42.7432 45.1309 42.9965C44.9944 43.0964 44.9324 43.2454 44.9324 43.2454L44.9395 51.2876V51.4858C44.9395 51.4858 45.021 51.5782 45.0334 51.5901C45.3099 51.842 45.6325 52.0416 46.0454 52.1132C46.726 52.2309 47.2063 51.9925 47.3392 51.462C47.3729 51.3293 47.3924 51.1923 47.3924 51.0567C47.3959 48.662 47.4012 46.2689 47.3871 43.8757C47.3853 43.6222 47.2967 43.3585 47.185 43.1217Z" fill="white"/>
<path d="M54.5872 14.5586L54.5863 28.0062H51.6227L51.6262 26.5615C51.2985 26.8328 51.0189 27.0863 50.7116 27.314C50.1668 27.7175 49.5496 28.0184 48.8278 28.1371C47.7196 28.3194 46.7756 28.0248 46.4222 27.0598C46.3046 26.7383 46.2335 26.3919 46.2305 26.0563V14.5586H49.1718V24.8138C49.1718 24.9497 49.1847 25.0871 49.2131 25.2204C49.3024 25.643 49.6739 25.8419 50.1579 25.7008C50.7479 25.5291 51.1981 25.1856 51.58 24.7809C51.6342 24.7231 51.6245 24.6152 51.6245 24.5304V14.5586H54.5872Z" fill="white"/>
<path d="M30.0756 16.8956C29.4323 14.6155 28.0844 9.80225 28.0844 9.80225H24.7119C24.7119 9.80225 27.303 17.0275 28.4617 20.2497C28.5034 20.3663 28.5225 20.4928 28.5225 20.6148L28.5213 28.0035H31.6312L31.6299 20.6148C31.6299 20.4928 31.6491 20.3663 31.6907 20.2497C32.8494 17.0275 35.4405 9.80225 35.4405 9.80225H32.068C32.068 9.80225 30.72 14.6155 30.0768 16.8956H30.0756Z" fill="white"/>
<path d="M39.4999 14.2222C37.1563 14.2222 35.2563 15.8196 35.2563 17.7901V24.7728C35.2563 26.7433 37.1563 28.3407 39.4999 28.3407C41.8436 28.3407 43.7435 26.7433 43.7435 24.7728V17.7901C43.7437 15.8196 41.8436 14.2222 39.4999 14.2222ZM40.7246 24.9137C40.7246 25.4815 40.1752 25.9433 39.5001 25.9433C38.8251 25.9433 38.2756 25.4815 38.2756 24.9137V17.649C38.2756 17.0813 38.8251 16.6195 39.5001 16.6195C40.1752 16.6195 40.7246 17.0814 40.7246 17.649V24.9137Z" fill="white"/>
</svg>
