<svg width="17" height="144" viewBox="0 0 17 144" fill="none" xmlns="http://www.w3.org/2000/svg">
<path d="M13.6758 103.064H2.83594L2.25 0.427002H14.3594L13.6758 103.064ZM0.882812 135.779C0.882812 133.565 1.59896 131.71 3.03125 130.212C4.46354 128.65 6.41667 127.868 8.89062 127.868C11.3646 127.868 13.3177 128.65 14.75 130.212C16.2474 131.71 16.9961 133.565 16.9961 135.779C16.9961 137.927 16.2474 139.75 14.75 141.247C13.3177 142.68 11.3646 143.396 8.89062 143.396C6.41667 143.396 4.46354 142.68 3.03125 141.247C1.59896 139.75 0.882812 137.927 0.882812 135.779Z" fill="#A4AE1D"/>
</svg>
